<?xml version="1.0" encoding="UTF-8" standalone="no"?>
<!DOCTYPE svg PUBLIC "-//W3C//DTD SVG 1.1//EN"
 "http://www.w3.org/Graphics/SVG/1.1/DTD/svg11.dtd">
<!-- Generated by graphviz version 5.0.0 (20220707.1540)
 -->
<!-- Title: tests Pages: 1 -->
<svg width="641pt" height="57pt"
 viewBox="0.00 0.00 641.00 57.00" xmlns="http://www.w3.org/2000/svg" xmlns:xlink="http://www.w3.org/1999/xlink">
<g id="graph0" class="graph" transform="scale(1 1) rotate(0) translate(4 53)">
<title>tests</title>
<polygon fill="white" stroke="transparent" points="-4,4 -4,-53 637,-53 637,4 -4,4"/>
<!-- Node1 -->
<g id="node1" class="node">
<title>Node1</title>
<g id="a_node1"><a xlink:title="Test implementations.">
<polygon fill="#bfbfbf" stroke="black" points="0,-6 0,-25 38,-25 38,-6 0,-6"/>
<text text-anchor="middle" x="19" y="-13" font-family="Helvetica,sans-Serif" font-size="10.00">tests</text>
</a>
</g>
</g>
<!-- Node2 -->
<g id="node2" class="node">
<title>Node2</title>
<g id="a_node2"><a xlink:href="../../d6/dc1/classmath_1_1ncr__modulo__p_1_1_n_c_r_modulo_p.html#a6b95277f5f527beacc8d0f3bc91fcd08" target="_top" xlink:title=" ">
<polygon fill="white" stroke="black" points="74,-0.5 74,-30.5 179,-30.5 179,-0.5 74,-0.5"/>
<text text-anchor="start" x="82" y="-18.5" font-family="Helvetica,sans-Serif" font-size="10.00">math::ncr_modulo_p</text>
<text text-anchor="middle" x="126.5" y="-7.5" font-family="Helvetica,sans-Serif" font-size="10.00">::NCRModuloP::ncr</text>
</a>
</g>
</g>
<!-- Node1&#45;&gt;Node2 -->
<g id="edge1" class="edge">
<title>Node1&#45;&gt;Node2</title>
<path fill="none" stroke="midnightblue" d="M38.38,-15.5C45.66,-15.5 54.49,-15.5 63.7,-15.5"/>
<polygon fill="midnightblue" stroke="midnightblue" points="63.79,-19 73.79,-15.5 63.79,-12 63.79,-19"/>
</g>
<!-- Node3 -->
<g id="node3" class="node">
<title>Node3</title>
<g id="a_node3"><a xlink:href="../../d6/dc1/classmath_1_1ncr__modulo__p_1_1_n_c_r_modulo_p.html#a0431ec5c876e1154d8e1e5f89e1ab34a" target="_top" xlink:title=" ">
<polygon fill="white" stroke="black" points="215,-0.5 215,-30.5 355,-30.5 355,-0.5 215,-0.5"/>
<text text-anchor="start" x="223" y="-18.5" font-family="Helvetica,sans-Serif" font-size="10.00">math::ncr_modulo_p</text>
<text text-anchor="middle" x="285" y="-7.5" font-family="Helvetica,sans-Serif" font-size="10.00">::NCRModuloP::modInverse</text>
</a>
</g>
</g>
<!-- Node2&#45;&gt;Node3 -->
<g id="edge2" class="edge">
<title>Node2&#45;&gt;Node3</title>
<path fill="none" stroke="midnightblue" d="M179.18,-15.5C187.37,-15.5 196,-15.5 204.65,-15.5"/>
<polygon fill="midnightblue" stroke="midnightblue" points="204.79,-19 214.79,-15.5 204.79,-12 204.79,-19"/>
</g>
<!-- Node4 -->
<g id="node4" class="node">
<title>Node4</title>
<g id="a_node4"><a xlink:href="../../d6/dc1/classmath_1_1ncr__modulo__p_1_1_n_c_r_modulo_p.html#afde201f4687740454302c444f507a926" target="_top" xlink:title=" ">
<polygon fill="white" stroke="black" points="391,-0.5 391,-30.5 537,-30.5 537,-0.5 391,-0.5"/>
<text text-anchor="start" x="399" y="-18.5" font-family="Helvetica,sans-Serif" font-size="10.00">math::ncr_modulo_p</text>
<text text-anchor="middle" x="464" y="-7.5" font-family="Helvetica,sans-Serif" font-size="10.00">::NCRModuloP::gcdExtended</text>
</a>
</g>
</g>
<!-- Node3&#45;&gt;Node4 -->
<g id="edge3" class="edge">
<title>Node3&#45;&gt;Node4</title>
<path fill="none" stroke="midnightblue" d="M355.19,-15.5C363.63,-15.5 372.3,-15.5 380.9,-15.5"/>
<polygon fill="midnightblue" stroke="midnightblue" points="380.94,-19 390.94,-15.5 380.94,-12 380.94,-19"/>
</g>
<!-- Node4&#45;&gt;Node4 -->
<g id="edge6" class="edge">
<title>Node4&#45;&gt;Node4</title>
<path fill="none" stroke="midnightblue" d="M439.95,-30.66C434.15,-40.06 442.17,-49 464,-49 477.3,-49 485.48,-45.68 488.52,-40.96"/>
<polygon fill="midnightblue" stroke="midnightblue" points="492,-40.49 488.05,-30.66 485.01,-40.81 492,-40.49"/>
</g>
<!-- Node5 -->
<g id="node5" class="node">
<title>Node5</title>
<g id="a_node5"><a xlink:href="../../dd/d47/namespacemath.html#a24ca6883661753daf1a3fe8e38078843" target="_top" xlink:title="find GCD using Euclid&#39;s algorithm">
<polygon fill="white" stroke="black" points="573,-6 573,-25 633,-25 633,-6 573,-6"/>
<text text-anchor="middle" x="603" y="-13" font-family="Helvetica,sans-Serif" font-size="10.00">math::gcd</text>
</a>
</g>
</g>
<!-- Node4&#45;&gt;Node5 -->
<g id="edge4" class="edge">
<title>Node4&#45;&gt;Node5</title>
<path fill="none" stroke="midnightblue" d="M537.11,-15.5C545.9,-15.5 554.6,-15.5 562.65,-15.5"/>
<polygon fill="midnightblue" stroke="midnightblue" points="562.8,-19 572.8,-15.5 562.8,-12 562.8,-19"/>
</g>
<!-- Node5&#45;&gt;Node5 -->
<g id="edge5" class="edge">
<title>Node5&#45;&gt;Node5</title>
<path fill="none" stroke="midnightblue" d="M581.73,-25.26C571.38,-34.07 578.47,-43.5 603,-43.5 618.71,-43.5 627.27,-39.63 628.67,-34.53"/>
<polygon fill="midnightblue" stroke="midnightblue" points="631.72,-32.79 624.27,-25.26 625.39,-35.79 631.72,-32.79"/>
</g>
</g>
</svg>
