<?xml version="1.0" encoding="UTF-8" standalone="no"?>
<!DOCTYPE svg PUBLIC "-//W3C//DTD SVG 1.1//EN"
 "http://www.w3.org/Graphics/SVG/1.1/DTD/svg11.dtd">
<!-- Generated by graphviz version 6.0.1 (20220911.1526)
 -->
<!-- Title: math::ncr_modulo_p::NCRModuloP::modInverse Pages: 1 -->
<svg width="426pt" height="56pt"
 viewBox="0.00 0.00 426.00 56.00" xmlns="http://www.w3.org/2000/svg" xmlns:xlink="http://www.w3.org/1999/xlink">
<g id="graph0" class="graph" transform="scale(1 1) rotate(0) translate(4 52)">
<title>math::ncr_modulo_p::NCRModuloP::modInverse</title>
<!-- Node1 -->
<g id="node1" class="node">
<title>Node1</title>
<g id="a_node1"><a xlink:title=" ">
<polygon fill="#999999" stroke="#666666" points="140,-30 0,-30 0,0 140,0 140,-30"/>
<text text-anchor="start" x="8" y="-18" font-family="Helvetica,sans-Serif" font-size="10.00">math::ncr_modulo_p</text>
<text text-anchor="middle" x="70" y="-7" font-family="Helvetica,sans-Serif" font-size="10.00">::NCRModuloP::modInverse</text>
</a>
</g>
</g>
<!-- Node2 -->
<g id="node2" class="node">
<title>Node2</title>
<g id="a_node2"><a xlink:href="../../d6/dc1/classmath_1_1ncr__modulo__p_1_1_n_c_r_modulo_p.html#afde201f4687740454302c444f507a926" target="_top" xlink:title=" ">
<polygon fill="white" stroke="#666666" points="322,-30 176,-30 176,0 322,0 322,-30"/>
<text text-anchor="start" x="184" y="-18" font-family="Helvetica,sans-Serif" font-size="10.00">math::ncr_modulo_p</text>
<text text-anchor="middle" x="249" y="-7" font-family="Helvetica,sans-Serif" font-size="10.00">::NCRModuloP::gcdExtended</text>
</a>
</g>
</g>
<!-- Node1&#45;&gt;Node2 -->
<g id="edge1" class="edge">
<title>Node1&#45;&gt;Node2</title>
<path fill="none" stroke="#63b8ff" d="M140.19,-15C148.63,-15 157.3,-15 165.9,-15"/>
<polygon fill="#63b8ff" stroke="#63b8ff" points="165.94,-18.5 175.94,-15 165.94,-11.5 165.94,-18.5"/>
</g>
<!-- Node2&#45;&gt;Node2 -->
<g id="edge4" class="edge">
<title>Node2&#45;&gt;Node2</title>
<path fill="none" stroke="#63b8ff" d="M224.57,-30.28C219.14,-39.41 227.28,-48 249,-48 261.9,-48 270.01,-44.97 273.33,-40.6"/>
<polygon fill="#63b8ff" stroke="#63b8ff" points="276.83,-40.31 273.43,-30.28 269.83,-40.24 276.83,-40.31"/>
</g>
<!-- Node3 -->
<g id="node3" class="node">
<title>Node3</title>
<g id="a_node3"><a xlink:href="../../dd/d47/namespacemath.html#a24ca6883661753daf1a3fe8e38078843" target="_top" xlink:title="find GCD using Euclid&#39;s algorithm">
<polygon fill="white" stroke="#666666" points="418,-24.5 358,-24.5 358,-5.5 418,-5.5 418,-24.5"/>
<text text-anchor="middle" x="388" y="-12.5" font-family="Helvetica,sans-Serif" font-size="10.00">math::gcd</text>
</a>
</g>
</g>
<!-- Node2&#45;&gt;Node3 -->
<g id="edge2" class="edge">
<title>Node2&#45;&gt;Node3</title>
<path fill="none" stroke="#63b8ff" d="M322.11,-15C330.9,-15 339.6,-15 347.65,-15"/>
<polygon fill="#63b8ff" stroke="#63b8ff" points="347.8,-18.5 357.8,-15 347.8,-11.5 347.8,-18.5"/>
</g>
<!-- Node3&#45;&gt;Node3 -->
<g id="edge3" class="edge">
<title>Node3&#45;&gt;Node3</title>
<path fill="none" stroke="#63b8ff" d="M366.58,-24.58C356.15,-33.23 363.29,-42.5 388,-42.5 403.83,-42.5 412.45,-38.7 413.86,-33.69"/>
<polygon fill="#63b8ff" stroke="#63b8ff" points="416.95,-32.04 409.42,-24.58 410.65,-35.11 416.95,-32.04"/>
</g>
</g>
</svg>
