<?xml version="1.0" encoding="UTF-8" standalone="no"?>
<!DOCTYPE svg PUBLIC "-//W3C//DTD SVG 1.1//EN"
 "http://www.w3.org/Graphics/SVG/1.1/DTD/svg11.dtd">
<!-- Generated by graphviz version 6.0.1 (20220911.1526)
 -->
<!-- Title: math::ncr_modulo_p::NCRModuloP::ncr Pages: 1 -->
<svg width="567pt" height="56pt"
 viewBox="0.00 0.00 567.00 56.00" xmlns="http://www.w3.org/2000/svg" xmlns:xlink="http://www.w3.org/1999/xlink">
<g id="graph0" class="graph" transform="scale(1 1) rotate(0) translate(4 52)">
<title>math::ncr_modulo_p::NCRModuloP::ncr</title>
<!-- Node1 -->
<g id="node1" class="node">
<title>Node1</title>
<g id="a_node1"><a xlink:title=" ">
<polygon fill="#999999" stroke="#666666" points="105,-30 0,-30 0,0 105,0 105,-30"/>
<text text-anchor="start" x="8" y="-18" font-family="Helvetica,sans-Serif" font-size="10.00">math::ncr_modulo_p</text>
<text text-anchor="middle" x="52.5" y="-7" font-family="Helvetica,sans-Serif" font-size="10.00">::NCRModuloP::ncr</text>
</a>
</g>
</g>
<!-- Node2 -->
<g id="node2" class="node">
<title>Node2</title>
<g id="a_node2"><a xlink:href="../../d6/dc1/classmath_1_1ncr__modulo__p_1_1_n_c_r_modulo_p.html#a0431ec5c876e1154d8e1e5f89e1ab34a" target="_top" xlink:title=" ">
<polygon fill="white" stroke="#666666" points="281,-30 141,-30 141,0 281,0 281,-30"/>
<text text-anchor="start" x="149" y="-18" font-family="Helvetica,sans-Serif" font-size="10.00">math::ncr_modulo_p</text>
<text text-anchor="middle" x="211" y="-7" font-family="Helvetica,sans-Serif" font-size="10.00">::NCRModuloP::modInverse</text>
</a>
</g>
</g>
<!-- Node1&#45;&gt;Node2 -->
<g id="edge1" class="edge">
<title>Node1&#45;&gt;Node2</title>
<path fill="none" stroke="#63b8ff" d="M105.18,-15C113.37,-15 122,-15 130.65,-15"/>
<polygon fill="#63b8ff" stroke="#63b8ff" points="130.79,-18.5 140.79,-15 130.79,-11.5 130.79,-18.5"/>
</g>
<!-- Node3 -->
<g id="node3" class="node">
<title>Node3</title>
<g id="a_node3"><a xlink:href="../../d6/dc1/classmath_1_1ncr__modulo__p_1_1_n_c_r_modulo_p.html#afde201f4687740454302c444f507a926" target="_top" xlink:title=" ">
<polygon fill="white" stroke="#666666" points="463,-30 317,-30 317,0 463,0 463,-30"/>
<text text-anchor="start" x="325" y="-18" font-family="Helvetica,sans-Serif" font-size="10.00">math::ncr_modulo_p</text>
<text text-anchor="middle" x="390" y="-7" font-family="Helvetica,sans-Serif" font-size="10.00">::NCRModuloP::gcdExtended</text>
</a>
</g>
</g>
<!-- Node2&#45;&gt;Node3 -->
<g id="edge2" class="edge">
<title>Node2&#45;&gt;Node3</title>
<path fill="none" stroke="#63b8ff" d="M281.19,-15C289.63,-15 298.3,-15 306.9,-15"/>
<polygon fill="#63b8ff" stroke="#63b8ff" points="306.94,-18.5 316.94,-15 306.94,-11.5 306.94,-18.5"/>
</g>
<!-- Node3&#45;&gt;Node3 -->
<g id="edge5" class="edge">
<title>Node3&#45;&gt;Node3</title>
<path fill="none" stroke="#63b8ff" d="M365.57,-30.28C360.14,-39.41 368.28,-48 390,-48 402.9,-48 411.01,-44.97 414.33,-40.6"/>
<polygon fill="#63b8ff" stroke="#63b8ff" points="417.83,-40.31 414.43,-30.28 410.83,-40.24 417.83,-40.31"/>
</g>
<!-- Node4 -->
<g id="node4" class="node">
<title>Node4</title>
<g id="a_node4"><a xlink:href="../../dd/d47/namespacemath.html#a24ca6883661753daf1a3fe8e38078843" target="_top" xlink:title="find GCD using Euclid&#39;s algorithm">
<polygon fill="white" stroke="#666666" points="559,-24.5 499,-24.5 499,-5.5 559,-5.5 559,-24.5"/>
<text text-anchor="middle" x="529" y="-12.5" font-family="Helvetica,sans-Serif" font-size="10.00">math::gcd</text>
</a>
</g>
</g>
<!-- Node3&#45;&gt;Node4 -->
<g id="edge3" class="edge">
<title>Node3&#45;&gt;Node4</title>
<path fill="none" stroke="#63b8ff" d="M463.11,-15C471.9,-15 480.6,-15 488.65,-15"/>
<polygon fill="#63b8ff" stroke="#63b8ff" points="488.8,-18.5 498.8,-15 488.8,-11.5 488.8,-18.5"/>
</g>
<!-- Node4&#45;&gt;Node4 -->
<g id="edge4" class="edge">
<title>Node4&#45;&gt;Node4</title>
<path fill="none" stroke="#63b8ff" d="M507.58,-24.58C497.15,-33.23 504.29,-42.5 529,-42.5 544.83,-42.5 553.45,-38.7 554.86,-33.69"/>
<polygon fill="#63b8ff" stroke="#63b8ff" points="557.95,-32.04 550.42,-24.58 551.65,-35.11 557.95,-32.04"/>
</g>
</g>
</svg>
