<?xml version="1.0" encoding="UTF-8" standalone="no"?>
<!DOCTYPE svg PUBLIC "-//W3C//DTD SVG 1.1//EN"
 "http://www.w3.org/Graphics/SVG/1.1/DTD/svg11.dtd">
<!-- Generated by graphviz version 6.0.1 (20220911.1526)
 -->
<!-- Title: math::ncr_modulo_p::NCRModuloP::gcdExtended Pages: 1 -->
<svg width="250pt" height="56pt"
 viewBox="0.00 0.00 250.00 56.00" xmlns="http://www.w3.org/2000/svg" xmlns:xlink="http://www.w3.org/1999/xlink">
<g id="graph0" class="graph" transform="scale(1 1) rotate(0) translate(4 52)">
<title>math::ncr_modulo_p::NCRModuloP::gcdExtended</title>
<!-- Node1 -->
<g id="node1" class="node">
<title>Node1</title>
<g id="a_node1"><a xlink:title=" ">
<polygon fill="#999999" stroke="#666666" points="146,-30 0,-30 0,0 146,0 146,-30"/>
<text text-anchor="start" x="8" y="-18" font-family="Helvetica,sans-Serif" font-size="10.00">math::ncr_modulo_p</text>
<text text-anchor="middle" x="73" y="-7" font-family="Helvetica,sans-Serif" font-size="10.00">::NCRModuloP::gcdExtended</text>
</a>
</g>
</g>
<!-- Node1&#45;&gt;Node1 -->
<g id="edge3" class="edge">
<title>Node1&#45;&gt;Node1</title>
<path fill="none" stroke="#63b8ff" d="M48.57,-30.28C43.14,-39.41 51.28,-48 73,-48 85.9,-48 94.01,-44.97 97.33,-40.6"/>
<polygon fill="#63b8ff" stroke="#63b8ff" points="100.83,-40.31 97.43,-30.28 93.83,-40.24 100.83,-40.31"/>
</g>
<!-- Node2 -->
<g id="node2" class="node">
<title>Node2</title>
<g id="a_node2"><a xlink:href="../../dd/d47/namespacemath.html#a24ca6883661753daf1a3fe8e38078843" target="_top" xlink:title="find GCD using Euclid&#39;s algorithm">
<polygon fill="white" stroke="#666666" points="242,-24.5 182,-24.5 182,-5.5 242,-5.5 242,-24.5"/>
<text text-anchor="middle" x="212" y="-12.5" font-family="Helvetica,sans-Serif" font-size="10.00">math::gcd</text>
</a>
</g>
</g>
<!-- Node1&#45;&gt;Node2 -->
<g id="edge1" class="edge">
<title>Node1&#45;&gt;Node2</title>
<path fill="none" stroke="#63b8ff" d="M146.11,-15C154.9,-15 163.6,-15 171.65,-15"/>
<polygon fill="#63b8ff" stroke="#63b8ff" points="171.8,-18.5 181.8,-15 171.8,-11.5 171.8,-18.5"/>
</g>
<!-- Node2&#45;&gt;Node2 -->
<g id="edge2" class="edge">
<title>Node2&#45;&gt;Node2</title>
<path fill="none" stroke="#63b8ff" d="M190.58,-24.58C180.15,-33.23 187.29,-42.5 212,-42.5 227.83,-42.5 236.45,-38.7 237.86,-33.69"/>
<polygon fill="#63b8ff" stroke="#63b8ff" points="240.95,-32.04 233.42,-24.58 234.65,-35.11 240.95,-32.04"/>
</g>
</g>
</svg>
