<?xml version="1.0" encoding="UTF-8" standalone="no"?>
<!DOCTYPE svg PUBLIC "-//W3C//DTD SVG 1.1//EN"
 "http://www.w3.org/Graphics/SVG/1.1/DTD/svg11.dtd">
<!-- Generated by graphviz version 5.0.0 (20220707.1540)
 -->
<!-- Title: math::ncr_modulo_p::NCRModuloP::modInverse Pages: 1 -->
<svg width="426pt" height="57pt"
 viewBox="0.00 0.00 426.00 57.00" xmlns="http://www.w3.org/2000/svg" xmlns:xlink="http://www.w3.org/1999/xlink">
<g id="graph0" class="graph" transform="scale(1 1) rotate(0) translate(4 53)">
<title>math::ncr_modulo_p::NCRModuloP::modInverse</title>
<polygon fill="white" stroke="transparent" points="-4,4 -4,-53 422,-53 422,4 -4,4"/>
<!-- Node1 -->
<g id="node1" class="node">
<title>Node1</title>
<g id="a_node1"><a xlink:title=" ">
<polygon fill="#bfbfbf" stroke="black" points="0,-0.5 0,-30.5 140,-30.5 140,-0.5 0,-0.5"/>
<text text-anchor="start" x="8" y="-18.5" font-family="Helvetica,sans-Serif" font-size="10.00">math::ncr_modulo_p</text>
<text text-anchor="middle" x="70" y="-7.5" font-family="Helvetica,sans-Serif" font-size="10.00">::NCRModuloP::modInverse</text>
</a>
</g>
</g>
<!-- Node2 -->
<g id="node2" class="node">
<title>Node2</title>
<g id="a_node2"><a xlink:href="../../d6/dc1/classmath_1_1ncr__modulo__p_1_1_n_c_r_modulo_p.html#afde201f4687740454302c444f507a926" target="_top" xlink:title=" ">
<polygon fill="white" stroke="black" points="176,-0.5 176,-30.5 322,-30.5 322,-0.5 176,-0.5"/>
<text text-anchor="start" x="184" y="-18.5" font-family="Helvetica,sans-Serif" font-size="10.00">math::ncr_modulo_p</text>
<text text-anchor="middle" x="249" y="-7.5" font-family="Helvetica,sans-Serif" font-size="10.00">::NCRModuloP::gcdExtended</text>
</a>
</g>
</g>
<!-- Node1&#45;&gt;Node2 -->
<g id="edge1" class="edge">
<title>Node1&#45;&gt;Node2</title>
<path fill="none" stroke="midnightblue" d="M140.19,-15.5C148.63,-15.5 157.3,-15.5 165.9,-15.5"/>
<polygon fill="midnightblue" stroke="midnightblue" points="165.94,-19 175.94,-15.5 165.94,-12 165.94,-19"/>
</g>
<!-- Node2&#45;&gt;Node2 -->
<g id="edge4" class="edge">
<title>Node2&#45;&gt;Node2</title>
<path fill="none" stroke="midnightblue" d="M224.95,-30.66C219.15,-40.06 227.17,-49 249,-49 262.3,-49 270.48,-45.68 273.52,-40.96"/>
<polygon fill="midnightblue" stroke="midnightblue" points="277,-40.49 273.05,-30.66 270.01,-40.81 277,-40.49"/>
</g>
<!-- Node3 -->
<g id="node3" class="node">
<title>Node3</title>
<g id="a_node3"><a xlink:href="../../dd/d47/namespacemath.html#a24ca6883661753daf1a3fe8e38078843" target="_top" xlink:title="find GCD using Euclid&#39;s algorithm">
<polygon fill="white" stroke="black" points="358,-6 358,-25 418,-25 418,-6 358,-6"/>
<text text-anchor="middle" x="388" y="-13" font-family="Helvetica,sans-Serif" font-size="10.00">math::gcd</text>
</a>
</g>
</g>
<!-- Node2&#45;&gt;Node3 -->
<g id="edge2" class="edge">
<title>Node2&#45;&gt;Node3</title>
<path fill="none" stroke="midnightblue" d="M322.11,-15.5C330.9,-15.5 339.6,-15.5 347.65,-15.5"/>
<polygon fill="midnightblue" stroke="midnightblue" points="347.8,-19 357.8,-15.5 347.8,-12 347.8,-19"/>
</g>
<!-- Node3&#45;&gt;Node3 -->
<g id="edge3" class="edge">
<title>Node3&#45;&gt;Node3</title>
<path fill="none" stroke="midnightblue" d="M366.73,-25.26C356.38,-34.07 363.47,-43.5 388,-43.5 403.71,-43.5 412.27,-39.63 413.67,-34.53"/>
<polygon fill="midnightblue" stroke="midnightblue" points="416.72,-32.79 409.27,-25.26 410.39,-35.79 416.72,-32.79"/>
</g>
</g>
</svg>
