<?xml version="1.0" encoding="UTF-8" standalone="no"?>
<!DOCTYPE svg PUBLIC "-//W3C//DTD SVG 1.1//EN"
 "http://www.w3.org/Graphics/SVG/1.1/DTD/svg11.dtd">
<!-- Generated by graphviz version 5.0.0 (20220707.1540)
 -->
<!-- Title: math::ncr_modulo_p::NCRModuloP::gcdExtended Pages: 1 -->
<svg width="250pt" height="57pt"
 viewBox="0.00 0.00 250.00 57.00" xmlns="http://www.w3.org/2000/svg" xmlns:xlink="http://www.w3.org/1999/xlink">
<g id="graph0" class="graph" transform="scale(1 1) rotate(0) translate(4 53)">
<title>math::ncr_modulo_p::NCRModuloP::gcdExtended</title>
<polygon fill="white" stroke="transparent" points="-4,4 -4,-53 246,-53 246,4 -4,4"/>
<!-- Node1 -->
<g id="node1" class="node">
<title>Node1</title>
<g id="a_node1"><a xlink:title=" ">
<polygon fill="#bfbfbf" stroke="black" points="0,-0.5 0,-30.5 146,-30.5 146,-0.5 0,-0.5"/>
<text text-anchor="start" x="8" y="-18.5" font-family="Helvetica,sans-Serif" font-size="10.00">math::ncr_modulo_p</text>
<text text-anchor="middle" x="73" y="-7.5" font-family="Helvetica,sans-Serif" font-size="10.00">::NCRModuloP::gcdExtended</text>
</a>
</g>
</g>
<!-- Node1&#45;&gt;Node1 -->
<g id="edge3" class="edge">
<title>Node1&#45;&gt;Node1</title>
<path fill="none" stroke="midnightblue" d="M48.95,-30.66C43.15,-40.06 51.17,-49 73,-49 86.3,-49 94.48,-45.68 97.52,-40.96"/>
<polygon fill="midnightblue" stroke="midnightblue" points="101,-40.49 97.05,-30.66 94.01,-40.81 101,-40.49"/>
</g>
<!-- Node2 -->
<g id="node2" class="node">
<title>Node2</title>
<g id="a_node2"><a xlink:href="../../dd/d47/namespacemath.html#a24ca6883661753daf1a3fe8e38078843" target="_top" xlink:title="find GCD using Euclid&#39;s algorithm">
<polygon fill="white" stroke="black" points="182,-6 182,-25 242,-25 242,-6 182,-6"/>
<text text-anchor="middle" x="212" y="-13" font-family="Helvetica,sans-Serif" font-size="10.00">math::gcd</text>
</a>
</g>
</g>
<!-- Node1&#45;&gt;Node2 -->
<g id="edge1" class="edge">
<title>Node1&#45;&gt;Node2</title>
<path fill="none" stroke="midnightblue" d="M146.11,-15.5C154.9,-15.5 163.6,-15.5 171.65,-15.5"/>
<polygon fill="midnightblue" stroke="midnightblue" points="171.8,-19 181.8,-15.5 171.8,-12 171.8,-19"/>
</g>
<!-- Node2&#45;&gt;Node2 -->
<g id="edge2" class="edge">
<title>Node2&#45;&gt;Node2</title>
<path fill="none" stroke="midnightblue" d="M190.73,-25.26C180.38,-34.07 187.47,-43.5 212,-43.5 227.71,-43.5 236.27,-39.63 237.67,-34.53"/>
<polygon fill="midnightblue" stroke="midnightblue" points="240.72,-32.79 233.27,-25.26 234.39,-35.79 240.72,-32.79"/>
</g>
</g>
</svg>
