<?xml version="1.0" encoding="UTF-8" standalone="no"?>
<!DOCTYPE svg PUBLIC "-//W3C//DTD SVG 1.1//EN"
 "http://www.w3.org/Graphics/SVG/1.1/DTD/svg11.dtd">
<!-- Generated by graphviz version 5.0.0 (20220707.1540)
 -->
<!-- Title: math::findSmallestX Pages: 1 -->
<svg width="209pt" height="46pt"
 viewBox="0.00 0.00 209.00 46.00" xmlns="http://www.w3.org/2000/svg" xmlns:xlink="http://www.w3.org/1999/xlink">
<g id="graph0" class="graph" transform="scale(1 1) rotate(0) translate(4 42)">
<title>math::findSmallestX</title>
<polygon fill="white" stroke="transparent" points="-4,4 -4,-42 205,-42 205,4 -4,4"/>
<!-- Node1 -->
<g id="node1" class="node">
<title>Node1</title>
<g id="a_node1"><a xlink:title="find smallest value of x that satisfy &quot;ax &#45; by = 0&quot; ax &#45; by = ax = by ==&gt; x/y = b/a">
<polygon fill="#bfbfbf" stroke="black" points="0,-0.5 0,-19.5 105,-19.5 105,-0.5 0,-0.5"/>
<text text-anchor="middle" x="52.5" y="-7.5" font-family="Helvetica,sans-Serif" font-size="10.00">math::findSmallestX</text>
</a>
</g>
</g>
<!-- Node2 -->
<g id="node2" class="node">
<title>Node2</title>
<g id="a_node2"><a xlink:href="../../dd/d47/namespacemath.html#a24ca6883661753daf1a3fe8e38078843" target="_top" xlink:title="find GCD using Euclid&#39;s algorithm">
<polygon fill="white" stroke="black" points="141,-0.5 141,-19.5 201,-19.5 201,-0.5 141,-0.5"/>
<text text-anchor="middle" x="171" y="-7.5" font-family="Helvetica,sans-Serif" font-size="10.00">math::gcd</text>
</a>
</g>
</g>
<!-- Node1&#45;&gt;Node2 -->
<g id="edge1" class="edge">
<title>Node1&#45;&gt;Node2</title>
<path fill="none" stroke="midnightblue" d="M105.28,-10C113.73,-10 122.36,-10 130.46,-10"/>
<polygon fill="midnightblue" stroke="midnightblue" points="130.73,-13.5 140.73,-10 130.73,-6.5 130.73,-13.5"/>
</g>
<!-- Node2&#45;&gt;Node2 -->
<g id="edge2" class="edge">
<title>Node2&#45;&gt;Node2</title>
<path fill="none" stroke="midnightblue" d="M152.81,-19.76C143.96,-28.57 150.03,-38 171,-38 184.44,-38 191.75,-34.13 192.95,-29.03"/>
<polygon fill="midnightblue" stroke="midnightblue" points="196.19,-27.71 189.19,-19.76 189.7,-30.34 196.19,-27.71"/>
</g>
</g>
</svg>
